<svg xmlns="http://www.w3.org/2000/svg" viewBox="0 0 920 480" font-family="'Segoe UI',Helvetica,Arial,sans-serif">
<defs><linearGradient id="bg" x1="0" y1="0" x2="1" y2="1"><stop offset="0" stop-color="#7cc63f"/><stop offset="0.54" stop-color="#0aa6e2"/><stop offset="1" stop-color="#042a63"/></linearGradient></defs>
<rect x="1.5" y="1.5" width="917" height="477" rx="18" fill="#ffffff" stroke="#e1e8ee" stroke-width="1.5"/>
<rect x="40" y="34" width="46" height="6" rx="3" fill="url(#bg)"/>
<text x="40" y="72" font-size="26" font-weight="700" fill="#042a63">Vetting a GMP Audit Consultant</text>
<circle cx="62" cy="124" r="16" fill="#eaf6ee" stroke="#2f8f3a" stroke-width="1.5"/><path d="M54 124 l5 6 l11 -12" fill="none" stroke="#2f8f3a" stroke-width="3" stroke-linecap="round" stroke-linejoin="round"/><text x="92" y="123" font-size="17" font-weight="600" fill="#042a63">Relevant GMP background</text><text x="92" y="143" font-size="13.5" fill="#5f7283">Hands-on QP, QA/QC or production history in your dosage forms</text><circle cx="62" cy="180" r="16" fill="#eaf6ee" stroke="#2f8f3a" stroke-width="1.5"/><path d="M54 180 l5 6 l11 -12" fill="none" stroke="#2f8f3a" stroke-width="3" stroke-linecap="round" stroke-linejoin="round"/><text x="92" y="179" font-size="17" font-weight="600" fill="#042a63">Current lead auditor</text><text x="92" y="199" font-size="13.5" fill="#5f7283">ISO 19011 training plus audits led in the last 12 months</text><circle cx="62" cy="236" r="16" fill="#eaf6ee" stroke="#2f8f3a" stroke-width="1.5"/><path d="M54 236 l5 6 l11 -12" fill="none" stroke="#2f8f3a" stroke-width="3" stroke-linecap="round" stroke-linejoin="round"/><text x="92" y="235" font-size="17" font-weight="600" fill="#042a63">Framework fluency</text><text x="92" y="255" font-size="13.5" fill="#5f7283">EU GMP, ICH Q9/Q10 and, where relevant, 21 CFR 210/211</text><circle cx="62" cy="292" r="16" fill="#eaf6ee" stroke="#2f8f3a" stroke-width="1.5"/><path d="M54 292 l5 6 l11 -12" fill="none" stroke="#2f8f3a" stroke-width="3" stroke-linecap="round" stroke-linejoin="round"/><text x="92" y="291" font-size="17" font-weight="600" fill="#042a63">Genuine independence</text><text x="92" y="311" font-size="13.5" fill="#5f7283">No conflict of interest with the audited party</text><circle cx="62" cy="348" r="16" fill="#eaf6ee" stroke="#2f8f3a" stroke-width="1.5"/><path d="M54 348 l5 6 l11 -12" fill="none" stroke="#2f8f3a" stroke-width="3" stroke-linecap="round" stroke-linejoin="round"/><text x="92" y="347" font-size="17" font-weight="600" fill="#042a63">Risk-based method</text><text x="92" y="367" font-size="13.5" fill="#5f7283">Effort follows risk; findings graded and evidenced</text><circle cx="62" cy="404" r="16" fill="#eaf6ee" stroke="#2f8f3a" stroke-width="1.5"/><path d="M54 404 l5 6 l11 -12" fill="none" stroke="#2f8f3a" stroke-width="3" stroke-linecap="round" stroke-linejoin="round"/><text x="92" y="403" font-size="17" font-weight="600" fill="#042a63">Reports &amp; CAPA support</text><text x="92" y="423" font-size="13.5" fill="#5f7283">Clear reporting that moves you towards closure</text>
<text x="884" y="456" font-size="12" fill="#9aa7b4" text-anchor="end">Double Helix Pharma</text>
</svg>