<svg xmlns="http://www.w3.org/2000/svg" viewBox="0 0 920 480" font-family="'Segoe UI',Helvetica,Arial,sans-serif">
<defs><linearGradient id="bg" x1="0" y1="0" x2="1" y2="1"><stop offset="0" stop-color="#7cc63f"/><stop offset="0.54" stop-color="#0aa6e2"/><stop offset="1" stop-color="#042a63"/></linearGradient></defs>
<rect x="1.5" y="1.5" width="917" height="477" rx="18" fill="#ffffff" stroke="#e1e8ee" stroke-width="1.5"/>
<rect x="40" y="34" width="46" height="6" rx="3" fill="url(#bg)"/>
<text x="40" y="72" font-size="26" font-weight="700" fill="#042a63">Leading vs Lagging Quality Metrics</text>
<rect x="36" y="104" width="406" height="332" rx="14" fill="#ffffff" stroke="#e1e8ee"/><path d="M50 104 h378 a14 14 0 0 1 14 14 v34 h-406 v-34 a14 14 0 0 1 14 -14 z" fill="#0aa6e2"/><text x="239" y="135" font-size="17" font-weight="700" fill="#fff" text-anchor="middle">Leading indicators</text><circle cx="62" cy="184" r="3.5" fill="#0aa6e2"/><text x="78" y="188" font-size="13.5" fill="#243748">Right-first-time rate for batch</text><text x="78" y="205" font-size="13.5" fill="#243748">documentation</text><circle cx="62" cy="230" r="3.5" fill="#0aa6e2"/><text x="78" y="234" font-size="13.5" fill="#243748">Deviation recurrence rate and</text><text x="78" y="251" font-size="13.5" fill="#243748">time-to-closure</text><circle cx="62" cy="276" r="3.5" fill="#0aa6e2"/><text x="78" y="280" font-size="13.5" fill="#243748">CAPA effectiveness-check pass rate</text><circle cx="62" cy="322" r="3.5" fill="#0aa6e2"/><text x="78" y="326" font-size="13.5" fill="#243748">Overdue training and overdue change controls</text><circle cx="62" cy="368" r="3.5" fill="#0aa6e2"/><text x="78" y="372" font-size="13.5" fill="#243748">Supplier on-time, in-full and reject rate</text><rect x="478" y="104" width="406" height="332" rx="14" fill="#ffffff" stroke="#e1e8ee"/><path d="M492 104 h378 a14 14 0 0 1 14 14 v34 h-406 v-34 a14 14 0 0 1 14 -14 z" fill="#2f8f3a"/><text x="681" y="135" font-size="17" font-weight="700" fill="#fff" text-anchor="middle">Lagging indicators</text><circle cx="504" cy="184" r="3.5" fill="#2f8f3a"/><text x="520" y="188" font-size="13.5" fill="#243748">Confirmed OOS and out-of-trend results</text><circle cx="504" cy="230" r="3.5" fill="#2f8f3a"/><text x="520" y="234" font-size="13.5" fill="#243748">Batch rejection and write-off rates</text><circle cx="504" cy="276" r="3.5" fill="#2f8f3a"/><text x="520" y="280" font-size="13.5" fill="#243748">Complaints per million units</text><circle cx="504" cy="322" r="3.5" fill="#2f8f3a"/><text x="520" y="326" font-size="13.5" fill="#243748">Recalls and field alerts</text><circle cx="460" cy="270" r="25" fill="#042a63"/><text x="460" y="276" font-size="14" font-weight="700" fill="#fff" text-anchor="middle">VS</text>
<text x="884" y="456" font-size="12" fill="#9aa7b4" text-anchor="end">Double Helix Pharma</text>
</svg>