<svg xmlns="http://www.w3.org/2000/svg" viewBox="0 0 920 480" font-family="'Segoe UI',Helvetica,Arial,sans-serif">
<defs><linearGradient id="bg" x1="0" y1="0" x2="1" y2="1"><stop offset="0" stop-color="#7cc63f"/><stop offset="0.54" stop-color="#0aa6e2"/><stop offset="1" stop-color="#042a63"/></linearGradient></defs>
<rect x="1.5" y="1.5" width="917" height="477" rx="18" fill="#ffffff" stroke="#e1e8ee" stroke-width="1.5"/>
<rect x="40" y="34" width="46" height="6" rx="3" fill="url(#bg)"/>
<text x="40" y="72" font-size="26" font-weight="700" fill="#042a63">Site Master File: Core Sections</text>
<rect x="28" y="108" width="158.4" height="326" rx="12" fill="#f3f7fa" stroke="#e1e8ee"/><rect x="28" y="108" width="158.4" height="8" rx="4" fill="url(#bg)"/><text x="107.2" y="160" font-size="22" font-weight="700" fill="#0aa6e2" text-anchor="middle">1</text><text x="107.2" y="196" font-size="16" font-weight="600" fill="#042a63" text-anchor="middle">General Information</text><text x="107.2" y="250" font-size="12.5" fill="#5f7283" text-anchor="middle">Manufacturer contact</text><text x="107.2" y="268" font-size="12.5" fill="#5f7283" text-anchor="middle">details, licensed</text><text x="107.2" y="286" font-size="12.5" fill="#5f7283" text-anchor="middle">activities and</text><text x="107.2" y="304" font-size="12.5" fill="#5f7283" text-anchor="middle">authorisations</text><rect x="204.4" y="108" width="158.4" height="326" rx="12" fill="#f3f7fa" stroke="#e1e8ee"/><rect x="204.4" y="108" width="158.4" height="8" rx="4" fill="url(#bg)"/><text x="283.6" y="160" font-size="22" font-weight="700" fill="#0aa6e2" text-anchor="middle">2</text><text x="283.6" y="196" font-size="16" font-weight="600" fill="#042a63" text-anchor="middle">Quality Management</text><text x="283.6" y="250" font-size="12.5" fill="#5f7283" text-anchor="middle">The QMS and the QP's</text><text x="283.6" y="268" font-size="12.5" fill="#5f7283" text-anchor="middle">role in batch</text><text x="283.6" y="286" font-size="12.5" fill="#5f7283" text-anchor="middle">certification</text><rect x="380.8" y="108" width="158.4" height="326" rx="12" fill="#f3f7fa" stroke="#e1e8ee"/><rect x="380.8" y="108" width="158.4" height="8" rx="4" fill="url(#bg)"/><text x="460" y="160" font-size="22" font-weight="700" fill="#0aa6e2" text-anchor="middle">3</text><text x="460" y="196" font-size="16" font-weight="600" fill="#042a63" text-anchor="middle">Personnel</text><text x="460" y="250" font-size="12.5" fill="#5f7283" text-anchor="middle">Org chart and staff</text><text x="460" y="268" font-size="12.5" fill="#5f7283" text-anchor="middle">numbers across key</text><text x="460" y="286" font-size="12.5" fill="#5f7283" text-anchor="middle">functions</text><rect x="557.2" y="108" width="158.4" height="326" rx="12" fill="#f3f7fa" stroke="#e1e8ee"/><rect x="557.2" y="108" width="158.4" height="8" rx="4" fill="url(#bg)"/><text x="636.4000000000001" y="160" font-size="22" font-weight="700" fill="#0aa6e2" text-anchor="middle">4</text><text x="636.4000000000001" y="196" font-size="16" font-weight="600" fill="#042a63" text-anchor="middle">Premises &amp;</text><text x="636.4000000000001" y="218" font-size="16" font-weight="600" fill="#042a63" text-anchor="middle">Equipment</text><text x="636.4000000000001" y="250" font-size="12.5" fill="#5f7283" text-anchor="middle">Site, HVAC, water</text><text x="636.4000000000001" y="268" font-size="12.5" fill="#5f7283" text-anchor="middle">systems and principal</text><text x="636.4000000000001" y="286" font-size="12.5" fill="#5f7283" text-anchor="middle">equipment</text><rect x="733.6" y="108" width="158.4" height="326" rx="12" fill="#f3f7fa" stroke="#e1e8ee"/><rect x="733.6" y="108" width="158.4" height="8" rx="4" fill="url(#bg)"/><text x="812.8000000000001" y="160" font-size="22" font-weight="700" fill="#0aa6e2" text-anchor="middle">5</text><text x="812.8000000000001" y="196" font-size="16" font-weight="600" fill="#042a63" text-anchor="middle">Production &amp; QC</text><text x="812.8000000000001" y="250" font-size="12.5" fill="#5f7283" text-anchor="middle">Products handled,</text><text x="812.8000000000001" y="268" font-size="12.5" fill="#5f7283" text-anchor="middle">processes and on-site QC</text><text x="812.8000000000001" y="286" font-size="12.5" fill="#5f7283" text-anchor="middle">activities</text>
<text x="884" y="456" font-size="12" fill="#9aa7b4" text-anchor="end">Double Helix Pharma</text>
</svg>